<?xml version="1.0" encoding="UTF-8"?>
<svg xmlns="http://www.w3.org/2000/svg" version="1.1" viewBox="0 0 400 400">
  <defs>
    <style>
      .cls-1 {
        fill: transparent;
      }

      .cls-2 {
        fill: #1c8ec7;
      }

      .cls-3 {
        fill: #243c69;
        font-family: FranklinGothic-Demi, 'Franklin Gothic Demi';
        font-size: 35.5px;
        font-weight: 300;
      }
    </style>
  </defs>
  <!-- Generator: Adobe Illustrator 28.7.8, SVG Export Plug-In . SVG Version: 1.2.0 Build 200)  -->
  <g>
    <g id="Layer_1">
      <path class="cls-2" d="M188.4,102.8c29.2.7,57,25.8,63.6,54.2,2.6,9.5,3.4,19.4,2.7,29.2-1.4,13.2-7.5,28.4-16.1,38.5-14.6,16.2-28.6,23.7-50.2,27-14.3,1.8-29,.5-43.4.4-2.3,0-4.5,0-6.7,0-1.3,0-3.6,0-2-1.8,7.1-6.4,12.7-13.8,15.8-22.8.6-1.8,1.5-3.8,3.4-4.3.9-.3,2-.3,3-.3,10.8,0,21.8.2,32.4-2.2,5.3-1.5,10.1-4.5,14.6-7.7,5.7-4.5,10.1-10.8,12.9-17.5,3-8.3,4.8-17.3,3.4-26.2-1.2-6.4-4.3-12.4-7.5-18-4.2-6.6-10.6-11.6-17.5-15.2-8.7-4.7-18.9-4.2-28.5-4.7-4.8,0-9.7-.4-14.5,0-2.1.3-4.3,0-5.1-2.3-2.8-9.3-7.5-17.4-15.1-23.8-2-1.7-2.8-2.9.9-2.7,15.2,0,33.6,0,53.6,0h.2Z"/>
      <path class="cls-1" d="M55.4,223.2v-33.7c13.9,0,27.4-.1,40.9,0,4.9,0,9.7.9,13.5,4.5,4.4,4.3,4.6,9.6,4.1,15.1-.1,1.3-.3,2.5-.5,4.4-2,2.2-4.3,4.9-7.6,8.5-16.5.4-33.6.8-50.4,1.2Z"/>
      <path class="cls-1" d="M55.4,163.2v-31.6c1.4-.1,3.3-.4,5.1-.4,8.2.1,16.4.3,24.6.6,4.4.1,9-.2,13.2.7,6.9,1.5,11.4,5.3,12.1,13.3.9,10.2-6.6,16.6-15.2,16.9-7.9.3-15.8,0-23.7,0-4.3,0-8.6.4-12.8.6-.9,0-1.8-.1-3.3-.2Z"/>
      <path class="cls-1" d="M293.9,177.2v-45.3c6.6,0,13.5,0,20.3,0,2.8,0,5.6-.1,8.4,0,9.1.4,15.7,4.7,19.6,13.1,3.6,7.8,3,15.7-1.6,22.6-4.1,6.1-11,9.1-18.2,9.5-9.3.5-18.7.1-28.6.1Z"/>
      <text class="cls-3" transform="translate(18.3 293.2)"><tspan x="0" y="0">Business Dynamics Pro</tspan></text>
      <path class="cls-2" d="M309.4,102.8c20.2,0,43.1.5,58.4,15.6,18.2,17.4,19.3,49.6,2.7,68.4-12.6,14.6-32.6,19.1-51.1,19.2-6.7.2-13.5-.3-19.9,1.2-2.7.4-4.5,2.6-4.3,5.4.3,11,.1,22,0,33,0,3.7.6,7.4-4.5,7.2-8.4,0-17,0-25.4,0-1.1,0-2.3-.3-3-1.1-.9-1-1-2.5-1-3.8,0-4.6.2-9.2.2-13.8-1.1-17.1,1.4-35.2,15.3-46.8,22.3-20.1,51.5-.6,67.3-19.9,8.3-10.8,3.6-28.7-9.7-32.9-4.9-1.8-10.2-2.1-15.3-2.1-17.5,0-35,0-52.5,0-3.5.3-5.3-1.2-5-4.8,0-6.9,0-13.8,0-20.7-.1-2.9,1.8-4.2,4.6-4,14.3,0,28.7.2,43-.1h.2Z"/>
      <path class="cls-2" d="M22.6,105.4c.3-2.2,2.8-2.6,4.9-2.5,24.8.2,49.7-.8,74.5.5,13.2.8,27.3,6.7,33.5,19.1,2.8,6,4.6,13.2,4.8,19.9-.5,10.4-4.1,21.1-12.5,27.4-1.9,1.5-5.2,3.1-1.7,5.3,23.1,11.9,25.7,46.9,8,64.5-9.1,9.3-23.6,12.4-36.5,13-23.2.3-46.5.1-69.7.2-3.2.1-5.6-.7-5.5-4.4,0-47.5-.3-95.2.2-142.7v-.2ZM111.5,197.4c-3.1-5.2-9.7-7.3-15.7-7-12.4,0-24.8,0-37.3,0-1.3,0-3,0-3.9.8-1.4,1-1.4,3-1.4,4.6,0,7.7,0,15.3,0,23,0,3,1.5,4.6,4.6,4.4,2.7,0,5.3,0,8,0,9.6,0,19.3,0,28.9,0,3.7-.1,7.5-.6,10.9-2.1,8.4-4.1,10.7-16.1,5.9-23.6h0ZM108,156.3c4.6-6.6,3.5-17.2-3.4-21.9-3-2.2-6.8-2.8-10.5-2.8-11.9,0-23.8,0-35.6,0-3.4-.2-5.4,1.1-5.3,4.6,0,7.5,0,14.9,0,22.3,0,1.3.3,2.7,1.3,3.4.8.6,2.2.7,3.3.7,6.1-.1,12.2.2,18.2.1,5.4-.3,10.8-.1,16.2,0,5.7.3,12.3-1.3,15.7-6.2h.1Z"/>
    </g>
  </g>
</svg>